<svg width="1600" height="1200" viewBox="0 0 1600 1200" fill="none" xmlns="http://www.w3.org/2000/svg">
  <defs>
    <radialGradient id="space" cx="0" cy="0" r="1" gradientUnits="userSpaceOnUse" gradientTransform="translate(1060 560) rotate(132) scale(920 980)">
      <stop stop-color="#18253A" />
      <stop offset="0.6" stop-color="#0B1220" />
      <stop offset="1" stop-color="#05080C" />
    </radialGradient>
    <radialGradient id="planet" cx="0" cy="0" r="1" gradientUnits="userSpaceOnUse" gradientTransform="translate(1130 710) rotate(129) scale(420 420)">
      <stop stop-color="#F3C97A" />
      <stop offset="0.34" stop-color="#CF7B38" />
      <stop offset="0.62" stop-color="#7A4A3D" />
      <stop offset="1" stop-color="#2C334A" />
    </radialGradient>
    <radialGradient id="atmosphere" cx="0" cy="0" r="1" gradientUnits="userSpaceOnUse" gradientTransform="translate(1110 650) rotate(90) scale(460 460)">
      <stop stop-color="#4A9EFF" stop-opacity="0.35" />
      <stop offset="1" stop-color="#4A9EFF" stop-opacity="0" />
    </radialGradient>
    <filter id="blurLarge" x="-20%" y="-20%" width="140%" height="140%">
      <feGaussianBlur stdDeviation="38" />
    </filter>
    <filter id="blurSoft" x="-20%" y="-20%" width="140%" height="140%">
      <feGaussianBlur stdDeviation="12" />
    </filter>
  </defs>
  <rect width="1600" height="1200" fill="url(#space)" />
  <ellipse cx="1140" cy="690" rx="520" ry="440" fill="url(#atmosphere)" filter="url(#blurLarge)" />
  <circle cx="1130" cy="740" r="360" fill="url(#planet)" />
  <path d="M818 606C972 580 1100 566 1260 590C1366 606 1438 638 1482 676" stroke="#EAB16B" stroke-opacity="0.36" stroke-width="30" stroke-linecap="round" />
  <path d="M788 726C938 696 1098 690 1260 714C1352 728 1432 752 1490 798" stroke="#A84B33" stroke-opacity="0.32" stroke-width="48" stroke-linecap="round" />
  <path d="M820 844C970 824 1098 832 1236 874C1316 898 1376 934 1428 978" stroke="#E3C28E" stroke-opacity="0.2" stroke-width="34" stroke-linecap="round" />
  <ellipse cx="1140" cy="732" rx="98" ry="36" fill="#B84928" fill-opacity="0.22" filter="url(#blurSoft)" />
  <ellipse cx="1014" cy="850" rx="124" ry="44" fill="#8D583D" fill-opacity="0.24" filter="url(#blurSoft)" />
  <ellipse cx="1286" cy="636" rx="120" ry="42" fill="#F9D392" fill-opacity="0.2" filter="url(#blurSoft)" />
  <g fill="white">
    <circle cx="92" cy="84" r="1.2" />
    <circle cx="170" cy="130" r="1.6" />
    <circle cx="242" cy="96" r="1.1" />
    <circle cx="326" cy="158" r="1.3" />
    <circle cx="410" cy="110" r="1.9" />
    <circle cx="496" cy="188" r="1.3" />
    <circle cx="578" cy="92" r="1.1" />
    <circle cx="650" cy="162" r="1.5" />
    <circle cx="734" cy="106" r="1.2" />
    <circle cx="820" cy="180" r="1.4" />
    <circle cx="146" cy="282" r="1.7" />
    <circle cx="270" cy="324" r="1.1" />
    <circle cx="394" cy="278" r="1.6" />
    <circle cx="510" cy="338" r="1.2" />
    <circle cx="628" cy="292" r="1.3" />
    <circle cx="742" cy="346" r="1.8" />
    <circle cx="1466" cy="184" r="1.4" />
    <circle cx="1388" cy="258" r="1.2" />
    <circle cx="1490" cy="332" r="1.8" />
    <circle cx="1380" cy="462" r="1.3" />
    <circle cx="1462" cy="520" r="1.6" />
    <circle cx="168" cy="1090" r="1.5" />
    <circle cx="362" cy="1018" r="1.2" />
    <circle cx="548" cy="1084" r="1.8" />
    <circle cx="1342" cy="1036" r="1.4" />
    <circle cx="1480" cy="1112" r="1.7" />
  </g>
</svg>
