<svg width="1600" height="900" viewBox="0 0 1600 900" fill="none" xmlns="http://www.w3.org/2000/svg">
  <defs>
    <radialGradient id="baseGlow" cx="0" cy="0" r="1" gradientUnits="userSpaceOnUse" gradientTransform="translate(800 180) rotate(90) scale(620 980)">
      <stop stop-color="#17396B" />
      <stop offset="0.58" stop-color="#0D1B2A" />
      <stop offset="1" stop-color="#060B12" />
    </radialGradient>
    <radialGradient id="nebulaBlue" cx="0" cy="0" r="1" gradientUnits="userSpaceOnUse" gradientTransform="translate(470 230) rotate(39) scale(360 220)">
      <stop stop-color="#4A9EFF" stop-opacity="0.34" />
      <stop offset="1" stop-color="#4A9EFF" stop-opacity="0" />
    </radialGradient>
    <radialGradient id="nebulaWarm" cx="0" cy="0" r="1" gradientUnits="userSpaceOnUse" gradientTransform="translate(1180 160) rotate(8) scale(320 180)">
      <stop stop-color="#F0C070" stop-opacity="0.14" />
      <stop offset="1" stop-color="#F0C070" stop-opacity="0" />
    </radialGradient>
    <filter id="soft" x="-20%" y="-20%" width="140%" height="140%">
      <feGaussianBlur stdDeviation="14" />
    </filter>
  </defs>
  <rect width="1600" height="900" fill="url(#baseGlow)" />
  <ellipse cx="470" cy="230" rx="250" ry="130" fill="url(#nebulaBlue)" filter="url(#soft)" />
  <ellipse cx="1180" cy="160" rx="230" ry="110" fill="url(#nebulaWarm)" filter="url(#soft)" />
  <ellipse cx="840" cy="120" rx="420" ry="120" fill="#FFFFFF" fill-opacity="0.05" filter="url(#soft)" />
  <g fill="white">
    <circle cx="80" cy="78" r="1.1" />
    <circle cx="130" cy="96" r="1.4" />
    <circle cx="182" cy="58" r="1.2" />
    <circle cx="242" cy="124" r="1.1" />
    <circle cx="310" cy="76" r="1.6" />
    <circle cx="364" cy="152" r="1.2" />
    <circle cx="420" cy="82" r="1.5" />
    <circle cx="486" cy="166" r="1.1" />
    <circle cx="524" cy="102" r="1.8" />
    <circle cx="588" cy="58" r="1.1" />
    <circle cx="638" cy="132" r="1.4" />
    <circle cx="702" cy="96" r="1.1" />
    <circle cx="756" cy="48" r="1.8" />
    <circle cx="824" cy="144" r="1.1" />
    <circle cx="870" cy="88" r="1.2" />
    <circle cx="918" cy="176" r="1.7" />
    <circle cx="978" cy="68" r="1.1" />
    <circle cx="1020" cy="122" r="1.4" />
    <circle cx="1088" cy="58" r="1.2" />
    <circle cx="1142" cy="146" r="1.7" />
    <circle cx="1198" cy="84" r="1.1" />
    <circle cx="1246" cy="166" r="1.5" />
    <circle cx="1304" cy="108" r="1.1" />
    <circle cx="1356" cy="54" r="1.8" />
    <circle cx="1418" cy="136" r="1.2" />
    <circle cx="1474" cy="78" r="1.5" />
    <circle cx="1528" cy="126" r="1.1" />
    <circle cx="96" cy="228" r="1.7" />
    <circle cx="150" cy="188" r="1.1" />
    <circle cx="210" cy="264" r="1.4" />
    <circle cx="278" cy="208" r="1.2" />
    <circle cx="336" cy="258" r="1.8" />
    <circle cx="392" cy="198" r="1.1" />
    <circle cx="446" cy="244" r="1.4" />
    <circle cx="508" cy="212" r="1.2" />
    <circle cx="564" cy="290" r="1.6" />
    <circle cx="620" cy="236" r="1.1" />
    <circle cx="672" cy="198" r="1.4" />
    <circle cx="732" cy="256" r="1.2" />
    <circle cx="804" cy="210" r="1.6" />
    <circle cx="860" cy="274" r="1.1" />
    <circle cx="916" cy="236" r="1.4" />
    <circle cx="978" cy="294" r="1.2" />
    <circle cx="1040" cy="220" r="1.8" />
    <circle cx="1098" cy="264" r="1.1" />
    <circle cx="1158" cy="206" r="1.4" />
    <circle cx="1216" cy="288" r="1.2" />
    <circle cx="1284" cy="234" r="1.7" />
    <circle cx="1340" cy="198" r="1.1" />
    <circle cx="1402" cy="272" r="1.5" />
    <circle cx="1460" cy="216" r="1.2" />
    <circle cx="1512" cy="282" r="1.7" />
  </g>
</svg>
